<svg width="22" height="19" viewBox="0 0 22 19" fill="none" xmlns="http://www.w3.org/2000/svg">
<path d="M0.489001 19.0001H21.32C21.7607 19.0001 21.9764 18.47 21.658 18.1694L5.47567 2.89346L14.7814 3.05357C16.1024 3.24254 16.6712 4.75 15.1251 5.42857L11.489 7.03372L21.4089 9.12723C21.7132 9.19145 22.0001 8.96262 22.0001 8.65567V0.482294C22.0001 0.215964 21.7812 6.08776e-05 21.5112 6.08776e-05H0.489001C0.218995 6.08776e-05 0.00011172 0.215964 0.00011172 0.482294V5.89219C0.00011172 6.06557 0.0944712 6.2256 0.24725 6.31134L16.6712 15.528L0.00011172 11.1964V18.5178C0.00011172 18.7842 0.218995 19.0001 0.489001 19.0001Z" fill="#18181b"/>
</svg>
